<svg xmlns="http://www.w3.org/2000/svg" width="48" height="49" viewBox="0 0 48 49" fill="none">
  <path d="M23.25 45.2339H5.25C4.0125 45.2339 3 44.2214 3 42.9839V5.48389C3 4.24639 4.0125 3.23389 5.25 3.23389H32.25C33.4875 3.23389 34.5 4.24639 34.5 5.48389V19.7339C34.5 20.1464 34.8375 20.4839 35.25 20.4839C35.6625 20.4839 36 20.1464 36 19.7339V5.48389C36 3.41389 34.32 1.73389 32.25 1.73389H5.25C3.18 1.73389 1.5 3.41389 1.5 5.48389V42.9839C1.5 45.0539 3.18 46.7339 5.25 46.7339H23.25C23.6625 46.7339 24 46.3964 24 45.9839C24 45.5714 23.6625 45.2339 23.25 45.2339Z" fill="#1C1C1C"/>
  <path d="M42.75 21.9839H29.25C27.18 21.9839 25.5 23.6639 25.5 25.7339V42.9839C25.5 45.0539 27.18 46.7339 29.25 46.7339H42.75C44.82 46.7339 46.5 45.0539 46.5 42.9839V25.7339C46.5 23.6639 44.82 21.9839 42.75 21.9839ZM45 42.9839C45 44.2214 43.9875 45.2339 42.75 45.2339H29.25C28.0125 45.2339 27 44.2214 27 42.9839V25.7339C27 24.4964 28.0125 23.4839 29.25 23.4839H42.75C43.9875 23.4839 45 24.4964 45 25.7339V42.9839Z" fill="#1C1C1C"/>
  <path d="M42 25.7339H30C29.5875 25.7339 29.25 26.0714 29.25 26.4839V30.9839C29.25 31.3964 29.5875 31.7339 30 31.7339H42C42.4125 31.7339 42.75 31.3964 42.75 30.9839V26.4839C42.75 26.0714 42.4125 25.7339 42 25.7339ZM41.25 30.2339H30.75V27.2339H41.25V30.2339Z" fill="#1C1C1C"/>
  <path d="M31.5 33.9839H30C29.5875 33.9839 29.25 34.3214 29.25 34.7339C29.25 35.1464 29.5875 35.4839 30 35.4839H31.5C31.9125 35.4839 32.25 35.1464 32.25 34.7339C32.25 34.3214 31.9125 33.9839 31.5 33.9839Z" fill="#1C1C1C"/>
  <path d="M36.75 33.9839H35.25C34.8375 33.9839 34.5 34.3214 34.5 34.7339C34.5 35.1464 34.8375 35.4839 35.25 35.4839H36.75C37.1625 35.4839 37.5 35.1464 37.5 34.7339C37.5 34.3214 37.1625 33.9839 36.75 33.9839Z" fill="#1C1C1C"/>
  <path d="M42 33.9839H40.5C40.0875 33.9839 39.75 34.3214 39.75 34.7339C39.75 35.1464 40.0875 35.4839 40.5 35.4839H42C42.4125 35.4839 42.75 35.1464 42.75 34.7339C42.75 34.3214 42.4125 33.9839 42 33.9839Z" fill="#1C1C1C"/>
  <path d="M31.5 37.7339H30C29.5875 37.7339 29.25 38.0714 29.25 38.4839C29.25 38.8964 29.5875 39.2339 30 39.2339H31.5C31.9125 39.2339 32.25 38.8964 32.25 38.4839C32.25 38.0714 31.9125 37.7339 31.5 37.7339Z" fill="#1C1C1C"/>
  <path d="M36.75 37.7339H35.25C34.8375 37.7339 34.5 38.0714 34.5 38.4839C34.5 38.8964 34.8375 39.2339 35.25 39.2339H36.75C37.1625 39.2339 37.5 38.8964 37.5 38.4839C37.5 38.0714 37.1625 37.7339 36.75 37.7339Z" fill="#1C1C1C"/>
  <path d="M42 37.7339H40.5C40.0875 37.7339 39.75 38.0714 39.75 38.4839C39.75 38.8964 40.0875 39.2339 40.5 39.2339H42C42.4125 39.2339 42.75 38.8964 42.75 38.4839C42.75 38.0714 42.4125 37.7339 42 37.7339Z" fill="#1C1C1C"/>
  <path d="M31.5 41.4839H30C29.5875 41.4839 29.25 41.8214 29.25 42.2339C29.25 42.6464 29.5875 42.9839 30 42.9839H31.5C31.9125 42.9839 32.25 42.6464 32.25 42.2339C32.25 41.8214 31.9125 41.4839 31.5 41.4839Z" fill="#1C1C1C"/>
  <path d="M36.75 41.4839H35.25C34.8375 41.4839 34.5 41.8214 34.5 42.2339C34.5 42.6464 34.8375 42.9839 35.25 42.9839H36.75C37.1625 42.9839 37.5 42.6464 37.5 42.2339C37.5 41.8214 37.1625 41.4839 36.75 41.4839Z" fill="#1C1C1C"/>
  <path d="M42 41.4839H40.5C40.0875 41.4839 39.75 41.8214 39.75 42.2339C39.75 42.6464 40.0875 42.9839 40.5 42.9839H42C42.4125 42.9839 42.75 42.6464 42.75 42.2339C42.75 41.8214 42.4125 41.4839 42 41.4839Z" fill="#1C1C1C"/>
  <path d="M21.75 11.1089C21.75 11.5214 22.0875 11.8589 22.5 11.8589C22.9125 11.8589 23.25 11.5214 23.25 11.1089C23.25 9.40644 21.6525 8.04144 19.5 7.77894V6.97644C19.5 6.56394 19.1625 6.22644 18.75 6.22644C18.3375 6.22644 18 6.56394 18 6.97644V7.77894C15.8475 8.04144 14.25 9.40644 14.25 11.1089C14.25 12.8114 15.8475 14.1764 18 14.4389V18.1664C16.725 17.9489 15.75 17.2139 15.75 16.3589C15.75 15.9464 15.4125 15.6089 15 15.6089C14.5875 15.6089 14.25 15.9464 14.25 16.3589C14.25 18.0614 15.8475 19.4264 18 19.6889V20.4839C18 20.8964 18.3375 21.2339 18.75 21.2339C19.1625 21.2339 19.5 20.8964 19.5 20.4839V19.6889C21.6525 19.4264 23.25 18.0614 23.25 16.3589C23.25 14.6564 21.6525 13.2914 19.5 13.0289V9.30144C20.775 9.51894 21.75 10.2539 21.75 11.1089ZM15.75 11.1089C15.75 10.2539 16.725 9.51894 18 9.30144V12.9089C16.725 12.6914 15.75 11.9564 15.75 11.1014V11.1089ZM21.75 16.3589C21.75 17.2139 20.775 17.9489 19.5 18.1664V14.5589C20.775 14.7764 21.75 15.5114 21.75 16.3664V16.3589Z" fill="#1C1C1C"/>
  <path d="M21.75 24.2339H9C8.5875 24.2339 8.25 24.5714 8.25 24.9839C8.25 25.3964 8.5875 25.7339 9 25.7339H21.75C22.1625 25.7339 22.5 25.3964 22.5 24.9839C22.5 24.5714 22.1625 24.2339 21.75 24.2339Z" fill="#1C1C1C"/>
  <path d="M21.75 30.2339H9C8.5875 30.2339 8.25 30.5714 8.25 30.9839C8.25 31.3964 8.5875 31.7339 9 31.7339H21.75C22.1625 31.7339 22.5 31.3964 22.5 30.9839C22.5 30.5714 22.1625 30.2339 21.75 30.2339Z" fill="#1C1C1C"/>
  <path d="M21.75 36.2339H9C8.5875 36.2339 8.25 36.5714 8.25 36.9839C8.25 37.3964 8.5875 37.7339 9 37.7339H21.75C22.1625 37.7339 22.5 37.3964 22.5 36.9839C22.5 36.5714 22.1625 36.2339 21.75 36.2339Z" fill="#1C1C1C"/>
</svg>