<svg xmlns="http://www.w3.org/2000/svg" width="48" height="49" viewBox="0 0 48 49" fill="none">
  <g clip-path="url(#clip0_1_11540)">
    <mask id="mask0_1_11540" style="mask-type:luminance" maskUnits="userSpaceOnUse" x="0" y="0" width="48" height="49">
      <path d="M0 0.78931H48V48.7893H0V0.78931Z" fill="white"/>
    </mask>
    <g mask="url(#mask0_1_11540)">
      <path d="M24 4.57251V1.49245" stroke="#1C1C1C" stroke-width="2" stroke-miterlimit="10" stroke-linecap="round" stroke-linejoin="round"/>
    </g>
    <path d="M12.1066 9.49878L9.92871 7.32097" stroke="#1C1C1C" stroke-width="2" stroke-miterlimit="10" stroke-linecap="round" stroke-linejoin="round"/>
    <path d="M38.0712 35.4634L35.8933 33.2855" stroke="#1C1C1C" stroke-width="2" stroke-miterlimit="10" stroke-linecap="round" stroke-linejoin="round"/>
    <path d="M7.18028 21.3922H4.10022" stroke="#1C1C1C" stroke-width="2" stroke-miterlimit="10" stroke-linecap="round" stroke-linejoin="round"/>
    <path d="M43.8998 21.3922H40.8197" stroke="#1C1C1C" stroke-width="2" stroke-miterlimit="10" stroke-linecap="round" stroke-linejoin="round"/>
    <path d="M12.1066 33.2855L9.92871 35.4634" stroke="#1C1C1C" stroke-width="2" stroke-miterlimit="10" stroke-linecap="round" stroke-linejoin="round"/>
    <path d="M38.0712 7.32097L35.8933 9.49878" stroke="#1C1C1C" stroke-width="2" stroke-miterlimit="10" stroke-linecap="round" stroke-linejoin="round"/>
    <mask id="mask1_1_11540" style="mask-type:luminance" maskUnits="userSpaceOnUse" x="0" y="0" width="48" height="49">
      <path d="M0 0.78931H48V48.7893H0V0.78931Z" fill="white"/>
    </mask>
    <g mask="url(#mask1_1_11540)">
      <path d="M31.1286 32.5269C31.4865 32.1157 31.884 31.7345 32.3174 31.3889C35.3868 28.9424 37.3538 25.1718 37.3538 20.9416C37.3538 13.625 31.4697 7.68273 24.1754 7.58879C16.7928 7.49373 10.6881 13.4814 10.6463 20.8644C10.6405 21.8931 10.7511 22.8951 10.9655 23.8577" stroke="#1C1C1C" stroke-width="2" stroke-miterlimit="10" stroke-linecap="round" stroke-linejoin="round"/>
      <path d="M12.0731 26.954C12.9487 28.6873 14.191 30.2037 15.6982 31.4014C17.8089 33.0788 19.0537 35.6155 19.0537 38.3115L28.9462 38.3119C28.9462 37.2969 29.1235 36.3055 29.457 35.374" stroke="#1C1C1C" stroke-width="2" stroke-miterlimit="10" stroke-linecap="round" stroke-linejoin="round"/>
      <path d="M29.5102 41.4299H18.4897C18.0245 41.4299 17.6472 41.0528 17.6472 40.5874V39.1544C17.6472 38.6892 18.0245 38.3118 18.4897 38.3118H29.5102C29.9754 38.3118 30.3527 38.6892 30.3527 39.1544V40.5874C30.3527 41.0528 29.9754 41.4299 29.5102 41.4299Z" stroke="#1C1C1C" stroke-width="2" stroke-miterlimit="10" stroke-linecap="round" stroke-linejoin="round"/>
      <path d="M29.5102 44.5481H18.4897C18.0245 44.5481 17.6472 44.1708 17.6472 43.7056V42.2726C17.6472 41.8072 18.0245 41.43 18.4897 41.43H29.5102C29.9754 41.43 30.3527 41.8072 30.3527 42.2726V43.7056C30.3527 44.1708 29.9754 44.5481 29.5102 44.5481Z" stroke="#1C1C1C" stroke-width="2" stroke-miterlimit="10" stroke-linecap="round" stroke-linejoin="round"/>
      <path d="M19.2689 44.658L20.356 47.0897C20.627 47.6959 21.229 48.0862 21.8929 48.0862H26.1071C26.7711 48.0862 27.373 47.6959 27.6441 47.0898L28.7312 44.658H19.2689Z" stroke="#1C1C1C" stroke-width="2" stroke-miterlimit="10" stroke-linecap="round" stroke-linejoin="round"/>
      <path d="M21.9219 38.3119V31.9769" stroke="#1C1C1C" stroke-width="2" stroke-miterlimit="10" stroke-linecap="round" stroke-linejoin="round"/>
      <path d="M26.0781 38.3119V31.9769" stroke="#1C1C1C" stroke-width="2" stroke-miterlimit="10" stroke-linecap="round" stroke-linejoin="round"/>
      <path d="M27.3694 31.9769H20.6307C20.1064 31.9769 19.6814 31.5519 19.6814 31.0275V29.7641C19.6814 29.2399 20.1064 28.8148 20.6307 28.8148H27.3694C27.8937 28.8148 28.3187 29.2399 28.3187 29.7641V31.0275C28.3187 31.5519 27.8937 31.9769 27.3694 31.9769Z" stroke="#1C1C1C" stroke-width="2" stroke-miterlimit="10" stroke-linecap="round" stroke-linejoin="round"/>
    </g>
  </g>
  <defs>
    <clipPath id="clip0_1_11540">
      <rect width="48" height="48" fill="white" transform="translate(0 0.789307)"/>
    </clipPath>
  </defs>
</svg>