<svg xmlns="http://www.w3.org/2000/svg" width="48" height="49" viewBox="0 0 48 49" fill="none">
  <g clip-path="url(#clip0_1_11588)">
    <path d="M32.25 40.6763H27.75V36.5918L34.4153 32.4263L27.75 28.2608V23.4263H32.25V17.4263H27.75V12.1763H33.75V1.67627H20.25V12.1763H26.25V17.4263H21.75V19.6763H15V21.1763H21.75V23.4263H26.25V28.2608L19.5848 32.4263L26.25 36.5918V40.6763H21.75C20.5095 40.6763 19.5 41.6858 19.5 42.9263V45.9263C19.5 47.1668 20.5095 48.1763 21.75 48.1763H32.25C33.4905 48.1763 34.5 47.1668 34.5 45.9263V42.9263C34.5 41.6858 33.4905 40.6763 32.25 40.6763ZM21.75 3.17627H32.25V10.6763H21.75V3.17627ZM23.25 18.9263H30.75V21.9263H23.25V18.9263ZM27 29.5605L31.5847 32.4263L27 35.292L22.4152 32.4263L27 29.5605ZM33 45.9263C33 46.3395 32.6632 46.6763 32.25 46.6763H21.75C21.3368 46.6763 21 46.3395 21 45.9263V42.9263C21 42.513 21.3368 42.1763 21.75 42.1763H32.25C32.6632 42.1763 33 42.513 33 42.9263V45.9263Z" fill="#1C1C1C"/>
    <path d="M13.7197 41.9565L15.4395 43.6763H8.862C8.6355 43.041 8.13525 42.5408 7.5 42.3143V26.4263H6V42.3143C5.12925 42.6248 4.5 43.4498 4.5 44.4263C4.5 45.6668 5.5095 46.6763 6.75 46.6763C7.7265 46.6763 8.5515 46.047 8.862 45.1763H15.4395L13.7197 46.896L14.7803 47.9565L18.3105 44.4263L14.7803 40.896L13.7197 41.9565ZM6.75 45.1763C6.33675 45.1763 6 44.8395 6 44.4263C6 44.013 6.33675 43.6763 6.75 43.6763C7.16325 43.6763 7.5 44.013 7.5 44.4263C7.5 44.8395 7.16325 45.1763 6.75 45.1763Z" fill="#1C1C1C"/>
    <path d="M45.75 30.3143V9.03827C46.6207 8.72777 47.25 7.90277 47.25 6.92627C47.25 5.68577 46.2405 4.67627 45 4.67627C44.0235 4.67627 43.1985 5.30552 42.888 6.17627H35.25V7.67627H42.888C43.1145 8.31152 43.6147 8.81177 44.25 9.03827V30.315C43.6147 30.5415 43.1145 31.0418 42.888 31.677H37.8105L39.5302 29.9573L38.4697 28.8968L34.9395 32.4263L38.4697 35.9565L39.5302 34.896L37.8105 33.1763H42.888C43.1985 34.047 44.0235 34.6763 45 34.6763C46.2405 34.6763 47.25 33.6668 47.25 32.4263C47.25 31.4498 46.6207 30.6248 45.75 30.3143ZM45 6.17627C45.4132 6.17627 45.75 6.51302 45.75 6.92627C45.75 7.33952 45.4132 7.67627 45 7.67627C44.5867 7.67627 44.25 7.33952 44.25 6.92627C44.25 6.51302 44.5867 6.17627 45 6.17627ZM45 33.1763C44.5867 33.1763 44.25 32.8395 44.25 32.4263C44.25 32.013 44.5867 31.6763 45 31.6763C45.4132 31.6763 45.75 32.013 45.75 32.4263C45.75 32.8395 45.4132 33.1763 45 33.1763Z" fill="#1C1C1C"/>
    <path d="M13.2907 20.4263L6.74998 15.7545L0.209229 20.4263L6.74998 25.098L13.2907 20.4263ZM6.74998 17.598L10.7092 20.4263L6.74998 23.2545L2.79073 20.4263L6.74998 17.598Z" fill="#1C1C1C"/>
    <path d="M23.25 4.67627H30.75V6.17627H23.25V4.67627Z" fill="#1C1C1C"/>
    <path d="M23.25 7.67627H27.75V9.17627H23.25V7.67627Z" fill="#1C1C1C"/>
    <path d="M29.25 7.67627H30.75V9.17627H29.25V7.67627Z" fill="#1C1C1C"/>
    <path d="M42 43.6763H43.5V45.1763H42V43.6763Z" fill="#1C1C1C"/>
    <path d="M39 43.6763H40.5V45.1763H39V43.6763Z" fill="#1C1C1C"/>
    <path d="M36 43.6763H37.5V45.1763H36V43.6763Z" fill="#1C1C1C"/>
    <path d="M14.25 7.67627H15.75V9.17627H14.25V7.67627Z" fill="#1C1C1C"/>
    <path d="M17.25 7.67627H18.75V9.17627H17.25V7.67627Z" fill="#1C1C1C"/>
    <path d="M11.25 7.67627H12.75V9.17627H11.25V7.67627Z" fill="#1C1C1C"/>
  </g>
  <defs>
    <clipPath id="clip0_1_11588">
      <rect width="48" height="48" fill="white" transform="translate(0 0.92627)"/>
    </clipPath>
  </defs>
</svg>