<svg xmlns="http://www.w3.org/2000/svg" width="48" height="49" viewBox="0 0 48 49" fill="none">
  <path d="M12.9383 20.8813C16.2611 22.9373 20.0925 24.0235 24 24.0172C32.728 24.0556 37.0644 13.1812 30.7237 7.21135C34.4387 8.56042 37.6458 11.0249 39.906 14.2672C38.6064 16.1294 36.987 17.7466 35.1229 19.0437C34.9638 19.1587 34.856 19.3315 34.8229 19.525C34.7897 19.7185 34.8338 19.9173 34.9456 20.0787C35.0574 20.2401 35.2281 20.3512 35.4209 20.3882C35.6138 20.4251 35.8134 20.385 35.977 20.2763C38.1352 18.7744 39.9887 16.8764 41.439 14.6832C41.5212 14.56 41.5651 14.4153 41.5651 14.2672C41.5651 14.1191 41.5212 13.9744 41.439 13.8512C39.5252 10.98 36.9321 8.62576 33.8899 6.99747C30.8478 5.36918 27.4506 4.51721 24.0001 4.51721C20.5495 4.51721 17.1523 5.36918 14.1102 6.99747C11.068 8.62576 8.47487 10.98 6.56109 13.8512C6.47904 13.9742 6.43519 14.1188 6.43506 14.2667C6.43493 14.4146 6.47851 14.5593 6.56034 14.6825C8.21126 17.1871 10.3876 19.3024 12.9383 20.8813ZM12.88 9.48925C14.2406 8.54238 15.7184 7.77646 17.2765 7.21075C16.3232 8.12278 15.5637 9.21785 15.0437 10.4304C14.5237 11.6429 14.2537 12.9479 14.25 14.2672C14.3119 15.1543 14.3443 18.3053 15.7312 17.8869C15.9193 17.8222 16.0741 17.6854 16.1614 17.5066C16.2487 17.3279 16.2614 17.1217 16.1968 16.9336C12.9556 6.5278 27.9709 1.39403 31.8033 11.6014C33.7115 16.7495 29.503 22.6617 23.9999 22.5171C20.8802 22.5247 17.8048 21.7786 15.0354 20.3424C12.2659 18.9062 9.88435 16.8222 8.09326 14.2679C9.39379 12.4046 11.0145 10.7866 12.88 9.48925Z" fill="#1C1C1C"/>
  <path d="M24 18.2889C29.3164 18.1199 29.3152 10.4116 23.9999 10.2433C18.6836 10.4124 18.6849 18.1207 24 18.2889ZM24 11.7433C24.664 11.7511 25.2982 12.0203 25.7649 12.4926C26.2317 12.9649 26.4935 13.6021 26.4935 14.2662C26.4935 14.9302 26.2317 15.5674 25.7649 16.0397C25.2981 16.512 24.6639 16.7812 23.9999 16.7889C23.336 16.7812 22.7018 16.5119 22.235 16.0397C21.7682 15.5674 21.5065 14.9301 21.5065 14.2661C21.5065 13.6021 21.7683 12.9648 22.2351 12.4925C22.7019 12.0203 23.336 11.751 24 11.7433Z" fill="#1C1C1C"/>
  <path d="M24 26.2668C23.8011 26.2669 23.6104 26.3459 23.4697 26.4865C23.3291 26.6272 23.2501 26.8179 23.25 27.0168V41.0935L21.2575 39.1007C21.1159 38.9646 20.9266 38.8895 20.7303 38.8914C20.5339 38.8934 20.3462 38.9723 20.2073 39.1111C20.0685 39.25 19.9896 39.4377 19.9877 39.6341C19.9858 39.8304 20.0609 40.0197 20.197 40.1613L23.4695 43.4342C23.5392 43.5039 23.6219 43.5592 23.7129 43.597C23.8039 43.6347 23.9015 43.6542 24 43.6542C24.0986 43.6542 24.1962 43.6347 24.2872 43.597C24.3782 43.5592 24.4609 43.5039 24.5306 43.4342L27.8031 40.1612C27.9392 40.0197 28.0143 39.8304 28.0124 39.634C28.0104 39.4377 27.9316 39.2499 27.7927 39.1111C27.6539 38.9722 27.4661 38.8934 27.2698 38.8914C27.0734 38.8895 26.8841 38.9647 26.7426 39.1007L24.75 41.0935V27.0168C24.75 26.8179 24.671 26.6272 24.5304 26.4865C24.3897 26.3459 24.199 26.2669 24 26.2668Z" fill="#1C1C1C"/>
  <path d="M3.05823 34.8044C3.11875 34.9395 3.21644 35.0547 3.33992 35.1365C3.4634 35.2182 3.60757 35.2632 3.75563 35.2662H8.37854C8.57492 35.2623 8.76197 35.1816 8.89949 35.0414C9.03701 34.9011 9.11405 34.7126 9.11404 34.5161C9.11403 34.3197 9.03699 34.1311 8.89945 33.9909C8.76192 33.8507 8.57487 33.77 8.37849 33.7662H5.56165L14.1427 25.1851C14.2123 25.1155 14.2676 25.0328 14.3053 24.9418C14.3429 24.8508 14.3623 24.7533 14.3623 24.6548C14.3623 24.5563 14.3429 24.4588 14.3053 24.3678C14.2676 24.2769 14.2123 24.1942 14.1427 24.1246C14.0731 24.0549 13.9904 23.9997 13.8994 23.962C13.8084 23.9243 13.7109 23.9049 13.6124 23.9049C13.5139 23.9049 13.4164 23.9243 13.3254 23.962C13.2345 23.9997 13.1518 24.0549 13.0822 24.1246L4.5 32.7067V29.8876C4.49617 29.6912 4.41546 29.5042 4.27522 29.3667C4.13498 29.2291 3.9464 29.1521 3.74998 29.1521C3.55356 29.1521 3.36498 29.2292 3.22475 29.3667C3.08452 29.5042 3.00382 29.6913 3 29.8877V34.5162C3.00026 34.6151 3.02005 34.7131 3.05823 34.8044Z" fill="#1C1C1C"/>
  <path d="M44.25 29.1376C44.0511 29.1376 43.8603 29.2166 43.7197 29.3572C43.579 29.4979 43.5 29.6887 43.5 29.8876V32.7067L34.9178 24.1245C34.7763 23.9885 34.587 23.9135 34.3907 23.9154C34.1944 23.9174 34.0067 23.9963 33.8679 24.1351C33.7291 24.2739 33.6502 24.4617 33.6482 24.658C33.6463 24.8543 33.7213 25.0435 33.8573 25.1851L42.4384 33.7661H39.6215C39.4251 33.77 39.238 33.8507 39.1005 33.9909C38.963 34.1311 38.886 34.3197 38.886 34.5161C38.886 34.7126 38.963 34.9011 39.1005 35.0414C39.2381 35.1816 39.4251 35.2623 39.6215 35.2661H44.2444C44.4428 35.2631 44.6324 35.1832 44.7733 35.0434C44.9142 34.9035 44.9954 34.7146 45 34.5161V29.8876C45 29.6887 44.921 29.4979 44.7803 29.3572C44.6397 29.2166 44.4489 29.1376 44.25 29.1376Z" fill="#1C1C1C"/>
</svg>